<?xml version="1.0" standalone="no"?>
<!DOCTYPE svg PUBLIC "-//W3C//DTD SVG 20010904//EN"
 "http://www.w3.org/TR/2001/REC-SVG-20010904/DTD/svg10.dtd">
<svg version="1.0" xmlns="http://www.w3.org/2000/svg"
 width="500.000000pt" height="500.000000pt" viewBox="0 0 500.000000 500.000000"
 preserveAspectRatio="xMidYMid meet">
<metadata>
Created by potrace 1.14, written by Peter Selinger 2001-2017
</metadata>
<g transform="translate(0.000000,500.000000) scale(0.100000,-0.100000)"
fill="#000000" stroke="none">
<path d="M2378 4705 c-2 -1 -52 -5 -111 -8 -395 -23 -823 -160 -1137 -364
-542 -353 -849 -849 -931 -1501 -13 -106 -16 -494 -5 -637 11 -146 16 -183 47
-334 87 -421 255 -734 536 -1000 141 -135 339 -279 366 -268 6 2 34 42 61 88
27 46 78 134 114 194 36 61 74 126 85 145 16 28 452 780 722 1245 32 55 82
141 110 190 29 50 258 446 510 880 252 435 466 806 477 825 10 19 23 42 29 50
5 8 52 89 104 180 89 155 93 165 73 173 -73 27 -401 99 -508 112 -30 3 -66 8
-80 10 -86 13 -451 29 -462 20z m162 -1151 c0 -4 -13 -30 -29 -58 -16 -28
-166 -295 -334 -592 -168 -298 -343 -606 -389 -685 -46 -79 -90 -157 -97 -174
l-13 -30 -10 25 c-42 105 -53 208 -52 475 1 201 2 215 32 327 35 133 100 280
166 373 114 158 311 286 511 330 62 14 215 20 215 9z"/>
<path d="M3834 4327 c-26 -40 -282 -475 -446 -757 -69 -118 -198 -341 -288
-495 -514 -883 -1448 -2499 -1516 -2622 -16 -28 -26 -55 -22 -58 12 -12 276
-74 403 -95 66 -11 167 -24 225 -29 104 -9 478 -7 555 3 22 3 65 8 95 11 283
31 573 113 828 236 571 275 936 696 1081 1249 52 197 73 383 75 666 2 249 -10
394 -50 594 -95 475 -313 851 -667 1146 -71 60 -188 145 -242 176 -6 4 -20 -8
-31 -25z m-472 -1558 c18 -82 21 -124 21 -329 0 -206 -2 -246 -21 -322 -84
-342 -277 -561 -587 -665 -91 -31 -290 -59 -300 -42 -6 8 19 52 220 399 79
135 152 261 162 280 18 31 169 291 219 377 11 17 44 76 75 130 103 180 171
285 180 276 5 -5 19 -52 31 -104z"/>
</g>
</svg>
