<?xml version="1.0" standalone="no"?>
<!DOCTYPE svg PUBLIC "-//W3C//DTD SVG 20010904//EN"
 "http://www.w3.org/TR/2001/REC-SVG-20010904/DTD/svg10.dtd">
<svg version="1.0" xmlns="http://www.w3.org/2000/svg"
 width="500.000000pt" height="250.000000pt" viewBox="0 0 500.000000 250.000000"
 preserveAspectRatio="xMidYMid meet">

<g transform="translate(0.000000,250.000000) scale(0.100000,-0.100000)"
fill="#000" stroke="none">
<path d="M2345 2400 c-216 -15 -453 -67 -639 -141 -258 -102 -723 -382 -917
-552 -239 -209 -428 -459 -534 -707 -73 -171 -145 -472 -160 -676 l-7 -92 713
-7 c853 -9 3994 -3 4005 7 17 18 -89 366 -168 547 -170 390 -335 644 -592 909
-224 231 -426 383 -661 497 -244 119 -519 194 -785 215 -74 5 -137 9 -140 9
-3 -1 -54 -5 -115 -9z m485 -1421 c102 -16 238 -66 320 -116 45 -28 117 -89
181 -152 104 -105 151 -173 131 -193 -20 -20 -1774 -48 -1802 -29 -31 21 188
214 336 297 135 75 367 166 494 192 62 13 261 14 340 1z"/>
</g>
</svg>
