<?xml version="1.0" standalone="no"?>
<!DOCTYPE svg PUBLIC "-//W3C//DTD SVG 20010904//EN"
 "http://www.w3.org/TR/2001/REC-SVG-20010904/DTD/svg10.dtd">
<svg version="1.0" xmlns="http://www.w3.org/2000/svg"
 width="500.000000pt" height="250.000000pt" viewBox="0 0 500.000000 250.000000"
 preserveAspectRatio="xMidYMid meet">

<g transform="translate(0.000000,250.000000) scale(0.100000,-0.100000)"
fill="#000" stroke="none">
<path d="M145 2218 c15 -66 57 -203 91 -297 227 -609 557 -1071 1009 -1411
302 -228 579 -358 905 -426 102 -21 141 -24 349 -24 211 0 246 2 359 25 540
110 1173 485 1524 904 108 130 187 251 264 406 118 237 175 456 209 793 l6 62
-2361 0 -2362 0 7 -32z m2848 -245 c212 -5 277 -9 277 -19 0 -21 -159 -162
-255 -226 -261 -175 -541 -268 -765 -255 -168 10 -361 83 -497 189 -102 79
-260 263 -250 292 2 6 35 14 73 17 102 8 1095 10 1417 2z"/>
</g>
</svg>
