<?xml version="1.0" standalone="no"?>
<!DOCTYPE svg PUBLIC "-//W3C//DTD SVG 20010904//EN"
 "http://www.w3.org/TR/2001/REC-SVG-20010904/DTD/svg10.dtd">
<svg version="1.0" xmlns="http://www.w3.org/2000/svg"
 width="500.000000pt" height="500.000000pt" viewBox="0 0 500.000000 500.000000"
 preserveAspectRatio="xMidYMid meet">

<g transform="translate(0.000000,500.000000) scale(0.100000,-0.100000)"
fill="#000000" stroke="none">
<path d="M2325 4699 c-504 -31 -972 -192 -1319 -454 -437 -329 -684 -738 -793
-1315 -26 -138 -26 -741 0 -910 73 -468 228 -806 497 -1084 169 -174 416 -365
440 -340 9 10 895 1534 1580 2719 747 1292 712 1228 694 1242 -21 15 -280 78
-424 102 -213 36 -480 51 -675 40z m203 -1138 c10 -6 -21 -71 -134 -272 -262
-469 -706 -1254 -714 -1263 -9 -9 -43 97 -60 189 -43 240 -9 579 80 801 66
165 216 343 360 427 150 87 413 153 468 118z"/>
<path d="M3830 4322 c-255 -429 -2204 -3791 -2249 -3880 l-22 -42 26 -10 c48
-18 179 -49 315 -74 415 -75 818 -69 1218 19 357 79 746 261 1001 468 378 306
602 708 675 1214 54 364 34 802 -50 1133 -124 485 -390 866 -803 1149 l-89 61
-22 -38z m-471 -1538 c75 -345 36 -711 -100 -950 -138 -241 -411 -408 -706
-431 -93 -7 -95 -5 -64 55 25 49 776 1346 808 1396 15 23 28 35 34 29 5 -5 18
-49 28 -99z"/>
</g>
</svg>
