<svg xmlns="http://www.w3.org/2000/svg" xmlns:xlink="http://www.w3.org/1999/xlink" width="4000" zoomAndPan="magnify" viewBox="0 0 3000 824.999997" height="1100" preserveAspectRatio="xMidYMid meet" version="1.0"><defs><filter x="0%" y="0%" width="100%" height="100%" id="5f3d02787b"><feColorMatrix values="0 0 0 0 1 0 0 0 0 1 0 0 0 0 1 0 0 0 1 0" color-interpolation-filters="sRGB"/></filter><mask id="e4eb982141"><g filter="url(#5f3d02787b)"><rect x="-300" width="3600" fill="#000000" y="-82.5" height="989.999996" fill-opacity="1"/></g></mask><clipPath id="02614528a6"><path d="M 0.398438 1 L 542.558594 1 L 542.558594 774.878906 L 0.398438 774.878906 Z M 0.398438 1 " clip-rule="nonzero"/></clipPath><clipPath id="25a85d4cfa"><rect x="0" width="543" y="0" height="775"/></clipPath><mask id="b860154674"><g filter="url(#5f3d02787b)"><rect x="-300" width="3600" fill="#000000" y="-82.5" height="989.999996" fill-opacity="1"/></g></mask><clipPath id="be458708d1"><path d="M 0.441406 1 L 551.960938 1 L 551.960938 786.640625 L 0.441406 786.640625 Z M 0.441406 1 " clip-rule="nonzero"/></clipPath><clipPath id="fdfc589a09"><rect x="0" width="552" y="0" height="787"/></clipPath><mask id="a40c6e0a0d"><g filter="url(#5f3d02787b)"><rect x="-300" width="3600" fill="#000000" y="-82.5" height="989.999996" fill-opacity="1"/></g></mask><clipPath id="258970a53b"><path d="M 0.359375 1 L 465 1 L 465 563 L 0.359375 563 Z M 0.359375 1 " clip-rule="nonzero"/></clipPath><clipPath id="0bf7ad644f"><rect x="0" width="466" y="0" height="564"/></clipPath><mask id="bd953ee586"><g filter="url(#5f3d02787b)"><rect x="-300" width="3600" fill="#000000" y="-82.5" height="989.999996" fill-opacity="1"/></g></mask><clipPath id="62025a6cec"><path d="M 1 0.238281 L 413 0.238281 L 413 521 L 1 521 Z M 1 0.238281 " clip-rule="nonzero"/></clipPath><clipPath id="59d590a12f"><rect x="0" width="414" y="0" height="522"/></clipPath><mask id="102456205e"><g filter="url(#5f3d02787b)"><rect x="-300" width="3600" fill="#000000" y="-82.5" height="989.999996" fill-opacity="1"/></g></mask><clipPath id="10bc1e7af7"><path d="M 1 1 L 343.359375 1 L 343.359375 532.878906 L 1 532.878906 Z M 1 1 " clip-rule="nonzero"/></clipPath><clipPath id="fa7be47355"><rect x="0" width="344" y="0" height="533"/></clipPath><mask id="20bd21b163"><g filter="url(#5f3d02787b)"><rect x="-300" width="3600" fill="#000000" y="-82.5" height="989.999996" fill-opacity="1"/></g></mask><clipPath id="fbf258cfce"><path d="M 0.199219 1 L 344 1 L 344 532.878906 L 0.199219 532.878906 Z M 0.199219 1 " clip-rule="nonzero"/></clipPath><clipPath id="80a2d37670"><rect x="0" width="345" y="0" height="533"/></clipPath><mask id="e1a0b88b5c"><g filter="url(#5f3d02787b)"><rect x="-300" width="3600" fill="#000000" y="-82.5" height="989.999996" fill-opacity="1"/></g></mask><clipPath id="b64b478499"><path d="M 1 0.199219 L 413.800781 0.199219 L 413.800781 517.640625 L 1 517.640625 Z M 1 0.199219 " clip-rule="nonzero"/></clipPath><clipPath id="6e3b4938f0"><rect x="0" width="414" y="0" height="518"/></clipPath></defs><g mask="url(#e4eb982141)"><g transform="matrix(1, 0, 0, 1, 2, 26)"><g clip-path="url(#25a85d4cfa)"><g clip-path="url(#02614528a6)"><path fill="#000000" d="M 172.695312 1.300781 C 174.988281 1.085938 177.191406 1.34375 179.304688 2.078125 C 179.488281 89.714844 179.875 177.347656 180.46875 264.980469 C 211.441406 249.769531 243.839844 238.492188 277.667969 231.144531 C 308.796875 225.253906 340.160156 223.699219 371.753906 226.476562 C 406.382812 229.464844 438.003906 240.613281 466.617188 259.925781 C 494.210938 283.074219 514.039062 311.722656 526.105469 345.875 C 533.855469 367.8125 538.777344 390.367188 540.878906 413.542969 C 541.980469 533.839844 542.371094 654.144531 542.042969 774.449219 C 482.429688 774.449219 422.816406 774.449219 363.199219 774.449219 C 363.265625 663.222656 362.875 551.992188 362.035156 440.765625 C 359.972656 408.90625 344.035156 387.515625 314.214844 376.597656 C 289.285156 370.519531 264.921875 372.332031 241.121094 382.042969 C 219.886719 390.003906 199.542969 399.726562 180.082031 411.210938 C 179.691406 532.289062 179.5625 653.367188 179.691406 774.449219 C 120.078125 774.449219 60.464844 774.449219 0.851562 774.449219 C 0.71875 520.882812 0.851562 267.3125 1.238281 13.746094 C 58.460938 9.507812 115.613281 5.359375 172.695312 1.300781 Z M 172.695312 1.300781 " fill-opacity="1" fill-rule="evenodd"/></g></g></g></g><g mask="url(#b860154674)"><g transform="matrix(1, 0, 0, 1, 1561, 26)"><g clip-path="url(#fdfc589a09)"><g clip-path="url(#be458708d1)"><path fill="#000000" d="M 174.292969 1.300781 C 176.332031 1.09375 178.273438 1.351562 180.125 2.078125 C 180.515625 86.601562 180.644531 171.125 180.515625 255.644531 C 245.167969 223.078125 312.5625 216.210938 382.683594 235.035156 C 432.457031 249.0625 471.726562 277.449219 500.488281 320.207031 C 533.089844 371.042969 549.941406 426.785156 551.03125 487.4375 C 553.90625 544.597656 543.796875 599.304688 520.703125 651.554688 C 479.066406 738.988281 409.472656 783.714844 311.925781 785.726562 C 278.636719 787.859375 246.234375 783.449219 214.726562 772.503906 C 182.714844 761.421875 152.902344 746.253906 125.304688 727.003906 C 114.03125 742.558594 102.886719 758.246094 91.871094 774.0625 C 61.621094 774.707031 31.421875 774.574219 1.28125 773.671875 C 0.730469 520.101562 0.863281 266.535156 1.671875 12.96875 C 59.359375 9.554688 116.902344 5.664062 174.292969 1.300781 Z M 245.832031 373.097656 C 269.074219 371.34375 291.101562 375.621094 311.925781 385.929688 C 322.320312 391.917969 331 399.824219 337.972656 409.652344 C 361.660156 446.1875 370.476562 486.117188 364.410156 529.4375 C 360.335938 557.226562 350.75 582.894531 335.640625 606.441406 C 317.476562 628.375 294.015625 639 265.269531 638.332031 C 233.644531 636.699219 205.519531 626.066406 180.902344 606.441406 C 180.816406 535.398438 181.207031 464.359375 182.070312 393.320312 C 202.363281 383.265625 223.621094 376.527344 245.832031 373.097656 Z M 245.832031 373.097656 " fill-opacity="1" fill-rule="evenodd"/></g></g></g></g><g mask="url(#a40c6e0a0d)"><g transform="matrix(1, 0, 0, 1, 2127, 250)"><g clip-path="url(#0bf7ad644f)"><g clip-path="url(#258970a53b)"><path fill="#000000" d="M 219.46875 2.089844 C 259.117188 -0.433594 297.742188 4.621094 335.328125 17.257812 C 410.078125 47.984375 452.71875 103.597656 463.242188 184.097656 C 463.496094 188.246094 463.761719 192.394531 464.019531 196.542969 C 464.945312 314.25 465.199219 431.964844 464.796875 549.671875 C 436.980469 550.707031 409.121094 550.707031 381.207031 549.671875 C 369.550781 535.9375 357.628906 522.457031 345.4375 509.226562 C 292.304688 551.085938 231.910156 568.332031 164.261719 560.949219 C 130.988281 558.414062 100.152344 548.558594 71.730469 531.394531 C 35.113281 505.242188 12.695312 469.851562 4.46875 425.222656 C -13.28125 312.496094 33.503906 244.695312 144.824219 221.824219 C 158.71875 219.371094 172.714844 217.816406 186.8125 217.15625 C 219.214844 216.765625 251.605469 216.636719 284.007812 216.765625 C 278.90625 181.457031 258.691406 160.84375 223.359375 154.929688 C 199.324219 153.390625 175.472656 155.464844 151.820312 161.152344 C 123.976562 167.242188 96.886719 175.667969 70.5625 186.433594 C 53.628906 142.496094 37.6875 98.160156 22.742188 53.425781 C 23.078125 51.664062 24.109375 50.496094 25.851562 49.925781 C 87.769531 23.097656 152.308594 7.152344 219.46875 2.089844 Z M 198.476562 328.773438 C 227.246094 328.773438 256.015625 328.773438 284.785156 328.773438 C 284.792969 346.414062 284.917969 364.042969 285.175781 381.664062 C 265.992188 398.199219 244.089844 409.734375 219.46875 416.277344 C 205.824219 419.316406 192.347656 418.796875 179.035156 414.722656 C 154.246094 402.570312 146.859375 383.515625 156.875 357.550781 C 165.972656 341.058594 179.84375 331.464844 198.476562 328.773438 Z M 198.476562 328.773438 " fill-opacity="1" fill-rule="evenodd"/></g></g></g></g><g mask="url(#bd953ee586)"><g transform="matrix(1, 0, 0, 1, 576, 252)"><g clip-path="url(#59d590a12f)"><g clip-path="url(#62025a6cec)"><path fill="#000000" d="M 261.96875 1.644531 C 311.210938 -2.011719 359.421875 3.304688 406.597656 17.589844 C 408.859375 18.125 410.929688 19.03125 412.820312 20.3125 C 316.664062 187.28125 220.113281 353.992188 123.171875 520.449219 C 60.351562 483.511719 21.992188 429.0625 8.089844 357.105469 C 1.449219 320.023438 -0.367188 282.691406 2.644531 245.101562 C 12.0625 149.160156 59.105469 78.769531 143.777344 33.925781 C 181.253906 15.867188 220.65625 5.109375 261.96875 1.644531 Z M 285.296875 144.761719 C 289.734375 144.507812 294.136719 144.765625 298.515625 145.539062 C 262.226562 209.839844 225.941406 274.140625 189.652344 338.4375 C 185.726562 327.90625 183.261719 317.015625 182.265625 305.769531 C 178.183594 273.113281 182.074219 241.480469 193.929688 210.878906 C 212.132812 171.78125 242.589844 149.742188 285.296875 144.761719 Z M 285.296875 144.761719 " fill-opacity="1" fill-rule="evenodd"/></g></g></g></g><g mask="url(#102456205e)"><g transform="matrix(1, 0, 0, 1, 1202, 268)"><g clip-path="url(#fa7be47355)"><g clip-path="url(#10bc1e7af7)"><path fill="#000000" d="M 298.464844 1.203125 C 301.871094 0.949219 305.246094 1.207031 308.574219 1.980469 C 321.339844 49.441406 332.878906 97.148438 343.175781 145.097656 C 282.898438 148.335938 229.246094 168.558594 182.21875 205.765625 C 181.828125 314.660156 181.695312 423.554688 181.828125 532.449219 C 121.699219 532.449219 61.558594 532.449219 1.429688 532.449219 C 1.429688 355.886719 1.429688 179.320312 1.429688 2.757812 C 31.753906 2.628906 62.082031 2.757812 92.40625 3.144531 C 108.074219 23.734375 124.015625 44.085938 140.226562 64.203125 C 169.023438 44.679688 199.734375 28.472656 232.371094 15.589844 C 253.855469 7.742188 275.882812 2.945312 298.464844 1.203125 Z M 298.464844 1.203125 " fill-opacity="1" fill-rule="evenodd"/></g></g></g></g><g mask="url(#20bd21b163)"><g transform="matrix(1, 0, 0, 1, 2653, 268)"><g clip-path="url(#80a2d37670)"><g clip-path="url(#fbf258cfce)"><path fill="#000000" d="M 297.648438 1.203125 C 301.054688 0.949219 304.429688 1.207031 307.757812 1.980469 C 319.925781 49.625 331.847656 97.328125 343.523438 145.097656 C 282.78125 148.101562 228.738281 168.324219 181.398438 205.765625 C 181.011719 314.660156 180.878906 423.554688 181.011719 532.449219 C 120.882812 532.449219 60.742188 532.449219 0.613281 532.449219 C 0.613281 355.886719 0.613281 179.320312 0.613281 2.757812 C 30.9375 2.628906 61.265625 2.757812 91.589844 3.144531 C 107.25 23.738281 123.191406 44.089844 139.410156 64.203125 C 166.339844 45.871094 194.984375 30.441406 225.332031 17.925781 C 248.730469 8.765625 272.835938 3.191406 297.648438 1.203125 Z M 297.648438 1.203125 " fill-opacity="1" fill-rule="evenodd"/></g></g></g></g><g mask="url(#e1a0b88b5c)"><g transform="matrix(1, 0, 0, 1, 749, 295)"><g clip-path="url(#6e3b4938f0)"><g clip-path="url(#b64b478499)"><path fill="#000000" d="M 289.582031 0.648438 C 356.960938 42.082031 396.75 102.234375 408.941406 181.101562 C 414.875 222.890625 414.617188 264.632812 408.164062 306.328125 C 396.304688 370.925781 363.78125 422.128906 310.578125 459.949219 C 261.402344 493.457031 206.972656 512.125 147.285156 515.949219 C 97.539062 520.3125 48.804688 515.257812 1.101562 500.78125 C 2.082031 497.257812 3.511719 493.882812 5.378906 490.671875 C 99.925781 327.179688 194.664062 163.839844 289.582031 0.648438 Z M 223.488281 186.546875 C 224.632812 187.203125 225.277344 188.242188 225.433594 189.65625 C 234.460938 223.25 234.972656 256.957031 226.988281 290.773438 C 215.113281 331.945312 188.554688 358.261719 147.285156 369.722656 C 136.804688 372.351562 126.183594 373.382812 115.40625 372.832031 C 151.539062 310.777344 187.566406 248.683594 223.488281 186.546875 Z M 223.488281 186.546875 " fill-opacity="1" fill-rule="evenodd"/></g></g></g></g></svg>